<?xml version="1.0" encoding="utf-8"?>
<!-- Generator: Adobe Illustrator 15.1.0, SVG Export Plug-In . SVG Version: 6.00 Build 0)  -->
<!DOCTYPE svg PUBLIC "-//W3C//DTD SVG 1.1//EN" "http://www.w3.org/Graphics/SVG/1.1/DTD/svg11.dtd">
<svg version="1.1" id="Layer_1" xmlns="http://www.w3.org/2000/svg" xmlns:xlink="http://www.w3.org/1999/xlink" x="0px" y="0px"
	 width="595.28px" height="841.89px" viewBox="0 0 595.28 841.89" enable-background="new 0 0 595.28 841.89" xml:space="preserve">
<g>
	<path fill="#003993" d="M483.359,562.398c0,23.386-19.134,42.52-42.52,42.52H155.213c-23.386,0-42.52-19.134-42.52-42.52V279.436
		c0-23.386,19.134-42.52,42.52-42.52H440.84c23.386,0,42.52,19.134,42.52,42.52V562.398z"/>
</g>
<circle fill="#FFFFFF" cx="204.25" cy="279.015" r="11.375"/>
<circle fill="#FFFFFF" cx="390.25" cy="279.015" r="11.375"/>
<g>
	<path fill="#FFFFFF" d="M459.027,501.954V328.061c0-4.677-3.827-8.504-8.504-8.504H145.531c-4.677,0-8.504,3.827-8.504,8.504
		v245.993c0,4.677,3.827,8.504,8.504,8.504H379.25"/>
</g>
<g>
	<line fill="#FFFFFF" x1="379.25" y1="582.557" x2="459.027" y2="501.954"/>
</g>
<g>
	<path fill="#CCCCCC" d="M385.316,576.509c-3.288,3.326-5.979,6.031-5.979,6.012c0-0.021,0-3.864,0-8.541v-23.22
		c0-4.677,0-12.331,0-17.008v-23.295c0-4.677,3.827-8.504,8.504-8.504h62.618c4.677,0,8.519,0,8.535,0
		c0.018,0-2.658,2.722-5.946,6.048L385.316,576.509z"/>
</g>
<text transform="matrix(1 0 0 1 160.6655 484.5591)" fill="#003993" font-family="'FuturaBT-Book'" font-size="78.8038">SPORTS</text>
<text transform="matrix(1 0 0 1 157.3311 418.8594)" fill="#003993" font-family="'FuturaBT-Medium'" font-size="95.6896">Brunel</text>
</svg>
